<?xml version="1.0" encoding="UTF-8" standalone="no"?>
<svg
   xmlns:dc="http://purl.org/dc/elements/1.1/"
   xmlns:cc="http://creativecommons.org/ns#"
   xmlns:rdf="http://www.w3.org/1999/02/22-rdf-syntax-ns#"
   xmlns:svg="http://www.w3.org/2000/svg"
   xmlns="http://www.w3.org/2000/svg"
   version="1.1"
   id="svg2"
   xml:space="preserve"
   width="1122.52"
   height="793.70135"
   viewBox="0 0 1122.52 793.70135"><metadata
     id="metadata8"><rdf:RDF><cc:Work
         rdf:about=""><dc:format>image/svg+xml</dc:format><dc:type
           rdf:resource="http://purl.org/dc/dcmitype/StillImage" /></cc:Work></rdf:RDF></metadata><defs
     id="defs6" /><g
     id="g10"
     transform="matrix(1.3333333,0,0,-1.3333333,0,793.70133)"><text
       transform="matrix(0.9992,0,0,-1,199.1953,408.3511)"
       style="font-variant:normal;font-weight:bold;font-stretch:normal;font-size:18px;font-family:Arial;-inkscape-font-specification:'Arial Bold';writing-mode:lr-tb;fill:#000000;fill-opacity:1;fill-rule:nonzero;stroke:none"
       id="text14"><tspan
         x="0 9.9999933"
         y="0"
         id="tspan12">60</tspan></text><text
       transform="matrix(0,0.999201,1,0,325.9904,469.6386)"
       style="font-variant:normal;font-weight:bold;font-stretch:normal;font-size:18px;font-family:Arial;-inkscape-font-specification:'Arial Bold';writing-mode:lr-tb;fill:#000000;fill-opacity:1;fill-rule:nonzero;stroke:none"
       id="text18"><tspan
         x="0 10.000004 20.000008 25.00001"
         y="0"
         id="tspan16">27.4</tspan></text><text
       transform="matrix(0,0.9992,1,0,352.3424,504.5586)"
       style="font-variant:normal;font-weight:bold;font-stretch:normal;font-size:18px;font-family:Arial;-inkscape-font-specification:'Arial Bold';writing-mode:lr-tb;fill:#000000;fill-opacity:1;fill-rule:nonzero;stroke:none"
       id="text22"><tspan
         x="0 9.9999933"
         y="0"
         id="tspan20">50</tspan></text><text
       transform="matrix(0.9992,0,0,-1,157.7554,431.0348)"
       style="font-variant:normal;font-weight:bold;font-stretch:normal;font-size:18px;font-family:Arial;-inkscape-font-specification:'Arial Bold';writing-mode:lr-tb;fill:#000000;fill-opacity:1;fill-rule:nonzero;stroke:none"
       id="text26"><tspan
         x="0 9.9999933"
         y="0"
         id="tspan24">23</tspan></text><text
       transform="matrix(0,0.999201,1,0,298.1288,458.3306)"
       style="font-variant:normal;font-weight:bold;font-stretch:normal;font-size:18px;font-family:Arial;-inkscape-font-specification:'Arial Bold';writing-mode:lr-tb;fill:#000000;fill-opacity:1;fill-rule:nonzero;stroke:none"
       id="text30"><tspan
         x="0"
         y="0"
         id="tspan28">6</tspan></text><text
       transform="matrix(0,0.999201,1,0,308.5868,176.6666)"
       style="font-variant:normal;font-weight:bold;font-stretch:normal;font-size:18px;font-family:Arial;-inkscape-font-specification:'Arial Bold';writing-mode:lr-tb;fill:#000000;fill-opacity:1;fill-rule:nonzero;stroke:none"
       id="text34"><tspan
         x="0 10.000004 20.000008"
         y="0"
         id="tspan32">132</tspan></text><text
       transform="matrix(0,0.999201,1,0,308.5868,19.5986)"
       style="font-variant:normal;font-weight:bold;font-stretch:normal;font-size:18px;font-family:Arial;-inkscape-font-specification:'Arial Bold';writing-mode:lr-tb;fill:#000000;fill-opacity:1;fill-rule:nonzero;stroke:none"
       id="text38"><tspan
         x="0"
         y="0"
         id="tspan36">4</tspan></text><text
       transform="matrix(0.9992,0,0,-1,198.1512,364.3005)"
       style="font-variant:normal;font-weight:bold;font-stretch:normal;font-size:18px;font-family:Arial;-inkscape-font-specification:'Arial Bold';writing-mode:lr-tb;fill:#000000;fill-opacity:1;fill-rule:nonzero;stroke:none"
       id="text42"><tspan
         x="0 9.9999933"
         y="0"
         id="tspan40">52</tspan></text><text
       transform="matrix(0.999875,0,0,-1,306.3852,374.8665)"
       style="font-variant:normal;font-weight:bold;font-stretch:normal;font-size:18px;font-family:Arial;-inkscape-font-specification:'Arial Bold';writing-mode:lr-tb;fill:#000000;fill-opacity:1;fill-rule:nonzero;stroke:none"
       id="text46"><tspan
         x="0 10.006749"
         y="0"
         id="tspan44">4-</tspan></text><path
       d="m 337.8,382.3 v 0.6 l -0.1,0.6 -0.2,0.5 -0.2,0.6 -0.2,0.5 -0.3,0.5 -0.4,0.4 -0.4,0.4 -0.4,0.4 -0.5,0.3 -0.5,0.3 -0.5,0.2 -0.5,0.2 -0.6,0.1 -0.6,0.1 h -0.5 l -0.6,-0.1 -0.6,-0.1 -0.5,-0.2 -0.5,-0.2 -0.5,-0.3 -0.5,-0.3 -0.4,-0.4 -0.4,-0.4 -0.4,-0.4 -0.3,-0.5 -0.2,-0.5 -0.2,-0.6 -0.2,-0.5 -0.1,-0.6 v -0.6 -0.5 l 0.1,-0.6 0.2,-0.5 0.2,-0.6 0.2,-0.5 0.3,-0.5 0.4,-0.4 0.4,-0.4 0.4,-0.4 0.5,-0.3 0.5,-0.3 0.5,-0.2 0.5,-0.2 0.6,-0.1 0.6,-0.1 h 0.5 l 0.6,0.1 0.6,0.1 0.5,0.2 0.5,0.2 0.5,0.3 0.5,0.3 0.4,0.4 0.4,0.4 0.4,0.4 0.3,0.5 0.2,0.5 0.2,0.6 0.2,0.5 0.1,0.6 v 0.5 m -8.9,-8 6.5,16.1"
       style="fill:none;stroke:#000000;stroke-width:0.51;stroke-linecap:butt;stroke-linejoin:miter;stroke-miterlimit:10;stroke-dasharray:none;stroke-opacity:1"
       id="path48" /><text
       transform="matrix(0.999201,0,0,-1,341.475,374.86)"
       style="font-variant:normal;font-weight:bold;font-stretch:normal;font-size:18px;font-family:Arial;-inkscape-font-specification:'Arial Bold';writing-mode:lr-tb;fill:#000000;fill-opacity:1;fill-rule:nonzero;stroke:none"
       id="text52"><tspan
         x="0"
         y="0"
         id="tspan50">4</tspan></text><text
       transform="matrix(0.999201,0,0,-1,557.187,425.692)"
       style="font-variant:normal;font-weight:bold;font-stretch:normal;font-size:18px;font-family:Arial;-inkscape-font-specification:'Arial Bold';writing-mode:lr-tb;fill:#000000;fill-opacity:1;fill-rule:nonzero;stroke:none"
       id="text58"><tspan
         x="0 10.000004 20.000008"
         y="0"
         id="tspan54">140</tspan><tspan
         x="11.934 21.934004 31.934008 41.93401 46.934013"
         y="34.487999"
         id="tspan56">142.5</tspan></text><path
       d="m 269.6,344.5 7.6,5.6 -2,2 -5.6,-7.6"
       style="fill:none;stroke:#000000;stroke-width:0.709;stroke-linecap:butt;stroke-linejoin:miter;stroke-miterlimit:10;stroke-dasharray:none;stroke-opacity:1"
       id="path60" /><path
       d="m 416.6,388.6 9.4,1.5 v -2.9 l -9.4,1.4 m 323.2,0 -9.4,-1.4 v 2.9 l 9.4,-1.5"
       style="fill:none;stroke:#000000;stroke-width:0.709;stroke-linecap:butt;stroke-linejoin:miter;stroke-miterlimit:10;stroke-dasharray:none;stroke-opacity:1"
       id="path62" /><path
       d="m 275.4,405.8 -9.3,-1.5 v 2.9 l 9.3,-1.4 m -136,0 9.3,1.4 v -2.9 l -9.3,1.5 m 52.1,22.7 -9.3,-1.5 v 2.9 l 9.3,-1.4 m -52.1,0 9.3,1.4 V 427 l -9.3,1.5"
       style="fill:none;stroke:#000000;stroke-width:0.709;stroke-linecap:butt;stroke-linejoin:miter;stroke-miterlimit:10;stroke-dasharray:none;stroke-opacity:1"
       id="path64" /><path
       d="m 311.1,341.3 1.4,-9.4 h -2.9 l 1.5,9.4 m 0,-299.4 -1.5,9.4 h 2.9 l -1.4,-9.4 m 0,0 -1.5,9.4 h 2.9 l -1.4,-9.4 m 0,-9 1.4,-9.4 h -2.9 l 1.5,9.4"
       style="fill:none;stroke:#000000;stroke-width:0.709;stroke-linecap:butt;stroke-linejoin:miter;stroke-miterlimit:10;stroke-dasharray:none;stroke-opacity:1"
       id="path66" /><path
       d="m 328.5,518.9 1.4,-9.3 H 327 l 1.5,9.3 m 0,-62.1 -1.5,9.4 h 2.9 l -1.4,-9.4 m 26.3,113.4 1.5,-9.4 h -2.9 l 1.4,9.4 m 0,-113.4 -1.4,9.4 h 2.9 l -1.5,-9.4 m -54.2,13.6 -1.4,9.4 h 2.9 l -1.5,-9.4 m 0,-13.6 1.5,-9.4 h -2.9 l 1.4,9.4"
       style="fill:none;stroke:#000000;stroke-width:0.709;stroke-linecap:butt;stroke-linejoin:miter;stroke-miterlimit:10;stroke-dasharray:none;stroke-opacity:1"
       id="path68" /><path
       d="m 148.5,361.7 9.3,1.5 v -2.9 l -9.3,1.4 m 117.9,0 -9.4,-1.4 v 2.9 l 9.4,-1.5 m 150.2,61.4 9.4,1.5 v -2.9 l -9.4,1.4 m 317.5,0 -9.4,-1.4 v 2.9 l 9.4,-1.5"
       style="fill:none;stroke:#000000;stroke-width:0.709;stroke-linecap:butt;stroke-linejoin:miter;stroke-miterlimit:10;stroke-dasharray:none;stroke-opacity:1"
       id="path70" /><path
       d="m 148.506,347.004 v 4.536"
       style="fill:none;stroke:#000000;stroke-width:0.51;stroke-linecap:round;stroke-linejoin:round;stroke-miterlimit:10;stroke-dasharray:86.4, 3.6, 3.6, 3.6;stroke-dashoffset:0;stroke-opacity:1"
       id="path72" /><path
       d="m 142.837,341.335 h -4.536"
       style="fill:none;stroke:#000000;stroke-width:0.51;stroke-linecap:round;stroke-linejoin:round;stroke-miterlimit:10;stroke-dasharray:86.4, 3.6, 3.6, 3.6;stroke-dashoffset:0;stroke-opacity:1"
       id="path74" /><path
       d="M 148.506,335.666 V 331.13"
       style="fill:none;stroke:#000000;stroke-width:0.51;stroke-linecap:round;stroke-linejoin:round;stroke-miterlimit:10;stroke-dasharray:86.4, 3.6, 3.6, 3.6;stroke-dashoffset:0;stroke-opacity:1"
       id="path76" /><path
       d="m 154.175,341.335 h 4.536"
       style="fill:none;stroke:#000000;stroke-width:0.51;stroke-linecap:round;stroke-linejoin:round;stroke-miterlimit:10;stroke-dasharray:86.4, 3.6, 3.6, 3.6;stroke-dashoffset:0;stroke-opacity:1"
       id="path78" /><path
       d="m 266.427,347.004 v 4.536"
       style="fill:none;stroke:#000000;stroke-width:0.51;stroke-linecap:round;stroke-linejoin:round;stroke-miterlimit:10;stroke-dasharray:86.4, 3.6, 3.6, 3.6;stroke-dashoffset:0;stroke-opacity:1"
       id="path80" /><path
       d="m 260.758,341.335 h -4.536"
       style="fill:none;stroke:#000000;stroke-width:0.51;stroke-linecap:round;stroke-linejoin:round;stroke-miterlimit:10;stroke-dasharray:86.4, 3.6, 3.6, 3.6;stroke-dashoffset:0;stroke-opacity:1"
       id="path82" /><path
       d="M 266.427,335.666 V 331.13"
       style="fill:none;stroke:#000000;stroke-width:0.51;stroke-linecap:round;stroke-linejoin:round;stroke-miterlimit:10;stroke-dasharray:86.4, 3.6, 3.6, 3.6;stroke-dashoffset:0;stroke-opacity:1"
       id="path84" /><path
       d="m 272.096,341.335 h 4.536"
       style="fill:none;stroke:#000000;stroke-width:0.51;stroke-linecap:round;stroke-linejoin:round;stroke-miterlimit:10;stroke-dasharray:86.4, 3.6, 3.6, 3.6;stroke-dashoffset:0;stroke-opacity:1"
       id="path86" /><path
       d="m 148.506,47.666 v 4.535"
       style="fill:none;stroke:#000000;stroke-width:0.51;stroke-linecap:round;stroke-linejoin:round;stroke-miterlimit:10;stroke-dasharray:86.4, 3.6, 3.6, 3.6;stroke-dashoffset:0;stroke-opacity:1"
       id="path88" /><path
       d="m 142.837,41.997 h -4.536"
       style="fill:none;stroke:#000000;stroke-width:0.51;stroke-linecap:round;stroke-linejoin:round;stroke-miterlimit:10;stroke-dasharray:86.4, 3.6, 3.6, 3.6;stroke-dashoffset:0;stroke-opacity:1"
       id="path90" /><path
       d="M 148.506,36.327 V 31.792"
       style="fill:none;stroke:#000000;stroke-width:0.51;stroke-linecap:round;stroke-linejoin:round;stroke-miterlimit:10;stroke-dasharray:86.4, 3.6, 3.6, 3.6;stroke-dashoffset:0;stroke-opacity:1"
       id="path92" /><path
       d="m 154.175,41.997 h 4.536"
       style="fill:none;stroke:#000000;stroke-width:0.51;stroke-linecap:round;stroke-linejoin:round;stroke-miterlimit:10;stroke-dasharray:86.4, 3.6, 3.6, 3.6;stroke-dashoffset:0;stroke-opacity:1"
       id="path94" /><path
       d="m 266.427,47.666 v 4.535"
       style="fill:none;stroke:#000000;stroke-width:0.51;stroke-linecap:round;stroke-linejoin:round;stroke-miterlimit:10;stroke-dasharray:86.4, 3.6, 3.6, 3.6;stroke-dashoffset:0;stroke-opacity:1"
       id="path96" /><path
       d="m 260.758,41.997 h -4.536"
       style="fill:none;stroke:#000000;stroke-width:0.51;stroke-linecap:round;stroke-linejoin:round;stroke-miterlimit:10;stroke-dasharray:86.4, 3.6, 3.6, 3.6;stroke-dashoffset:0;stroke-opacity:1"
       id="path98" /><path
       d="M 266.427,36.327 V 31.792"
       style="fill:none;stroke:#000000;stroke-width:0.51;stroke-linecap:round;stroke-linejoin:round;stroke-miterlimit:10;stroke-dasharray:86.4, 3.6, 3.6, 3.6;stroke-dashoffset:0;stroke-opacity:1"
       id="path100" /><path
       d="m 272.096,41.997 h 4.536"
       style="fill:none;stroke:#000000;stroke-width:0.51;stroke-linecap:round;stroke-linejoin:round;stroke-miterlimit:10;stroke-dasharray:86.4, 3.6, 3.6, 3.6;stroke-dashoffset:0;stroke-opacity:1"
       id="path102" /><path
       d="m 191.593,530.324 v 26.079"
       style="fill:none;stroke:#000000;stroke-width:0.51;stroke-linecap:round;stroke-linejoin:round;stroke-miterlimit:10;stroke-dasharray:86.4, 3.6, 3.6, 3.6;stroke-dashoffset:78.761;stroke-opacity:1"
       id="path104" /><path
       d="M 180.254,518.985 H 154.175"
       style="fill:none;stroke:#000000;stroke-width:0.51;stroke-linecap:round;stroke-linejoin:round;stroke-miterlimit:10;stroke-dasharray:86.4, 3.6, 3.6, 3.6;stroke-dashoffset:78.761;stroke-opacity:1"
       id="path106" /><path
       d="M 191.593,507.647 V 481.568"
       style="fill:none;stroke:#000000;stroke-width:0.51;stroke-linecap:round;stroke-linejoin:round;stroke-miterlimit:10;stroke-dasharray:86.4, 3.6, 3.6, 3.6;stroke-dashoffset:78.761;stroke-opacity:1"
       id="path108" /><path
       d="M 202.931,518.985 H 229.01"
       style="fill:none;stroke:#000000;stroke-width:0.51;stroke-linecap:round;stroke-linejoin:round;stroke-miterlimit:10;stroke-dasharray:86.4, 3.6, 3.6, 3.6;stroke-dashoffset:78.761;stroke-opacity:1"
       id="path110" /><path
       d="m 148.5,341.3 v 5.7 m 0,-5.7 h -5.7 m 5.7,0 v -5.7 m 0,5.7 h 5.6 m 112.3,0 v 5.7 m 0,-5.7 h -5.7 m 5.7,0 v -5.7 m 0,5.7 H 272 M 148.5,41.9 v 5.7 m 0,-5.7 h -5.7 m 5.7,0 v -5.6 m 0,5.6 h 5.6 m 112.3,0 v 5.7 m 0,-5.7 h -5.7 m 5.7,0 v -5.6 m 0,5.6 h 5.6"
       style="fill:none;stroke:#000000;stroke-width:0.51;stroke-linecap:round;stroke-linejoin:round;stroke-miterlimit:10;stroke-dasharray:none;stroke-opacity:1"
       id="path112" /><path
       d="m 191.5,518.9 v 5.7 m 0,-5.7 h -5.6 m 5.6,0 v -5.6 m 0,5.6 h 5.7"
       style="fill:none;stroke:#000000;stroke-width:0.51;stroke-linecap:round;stroke-linejoin:round;stroke-miterlimit:10;stroke-dasharray:none;stroke-opacity:1"
       id="path114" /><path
       d="M 207.467,351.363 V 46.154"
       style="fill:none;stroke:#000000;stroke-width:0.51;stroke-linecap:round;stroke-linejoin:round;stroke-miterlimit:10;stroke-dasharray:86.4, 3.6, 3.6, 3.6;stroke-dashoffset:36.396;stroke-opacity:1"
       id="path116" /><path
       d="m 269.6,344.5 27.7,27.8 m -34.1,-34.2 6.4,6.4 m 27.7,27.8 h 58.6"
       style="fill:none;stroke:#000000;stroke-width:0.709;stroke-linecap:round;stroke-linejoin:round;stroke-miterlimit:10;stroke-dasharray:none;stroke-opacity:1"
       id="path118" /><path
       d="m 416.6,470.4 v -81.8 m 323.2,98.6 v -98.6 m -323.2,0 h 323.2"
       style="fill:none;stroke:#000000;stroke-width:0.709;stroke-linecap:round;stroke-linejoin:round;stroke-miterlimit:10;stroke-dasharray:none;stroke-opacity:1"
       id="path120" /><path
       d="m 275.4,456.8 v -51 m -136,51 v -51 m 136,0 h -136 m 52.1,75.7 v -53 m -52.1,41.9 v -41.9 m 52.1,0 h -52.1"
       style="fill:none;stroke:#000000;stroke-width:0.709;stroke-linecap:round;stroke-linejoin:round;stroke-miterlimit:10;stroke-dasharray:none;stroke-opacity:1"
       id="path122" /><path
       d="m 276.6,341.3 h 34.5 M 276.6,41.9 h 34.5 m 0,299.4 V 41.9 m -34.5,0 h 34.5 m -37.9,-9 h 37.9 m 0,9 v 18 m 0,-18 v -9 m 0,0 V 15.1"
       style="fill:none;stroke:#000000;stroke-width:0.709;stroke-linecap:round;stroke-linejoin:round;stroke-miterlimit:10;stroke-dasharray:none;stroke-opacity:1"
       id="path124" /><path
       d="m 229,518.9 h 99.5 m -53.1,-62.1 h 53.1 m 0,62.1 v -62.1 m -72.3,113.4 h 98.6 M 275.4,456.8 h 79.4 m 0,113.4 V 456.8 m -79.4,13.6 h 25.2 m -25.2,-13.6 h 25.2 m 0,13.6 v 18 m 0,-18 v -13.6 m 0,0 v -18"
       style="fill:none;stroke:#000000;stroke-width:0.709;stroke-linecap:round;stroke-linejoin:round;stroke-miterlimit:10;stroke-dasharray:none;stroke-opacity:1"
       id="path126" /><path
       d="m 148.5,351.5 v 10.2 m 117.9,-10.2 v 10.2 m -117.9,0 h 117.9 m 150.2,95.1 v -33.7 m 317.5,33.7 v -33.7 m -317.5,0 h 317.5"
       style="fill:none;stroke:#000000;stroke-width:0.709;stroke-linecap:round;stroke-linejoin:round;stroke-miterlimit:10;stroke-dasharray:none;stroke-opacity:1"
       id="path128" /><path
       d="m 269.6,344.5 7.6,5.6 -2,2"
       style="fill:#000000;fill-opacity:1;fill-rule:nonzero;stroke:none"
       id="path130" /><path
       d="m 416.6,388.6 9.4,1.5 v -2.9 m 313.8,1.4 -9.4,-1.4 v 2.9"
       style="fill:#000000;fill-opacity:1;fill-rule:nonzero;stroke:none"
       id="path132" /><path
       d="m 275.4,405.8 -9.3,-1.5 v 2.9 m -126.7,-1.4 9.3,1.4 v -2.9 m 42.8,24.2 -9.3,-1.5 v 2.9 m -42.8,-1.4 9.3,1.4 V 427"
       style="fill:#000000;fill-opacity:1;fill-rule:nonzero;stroke:none"
       id="path134" /><path
       d="m 311.1,341.3 1.4,-9.4 h -2.9 m 1.5,-290 -1.5,9.4 h 2.9 m -1.4,-9.4 -1.5,9.4 h 2.9 m -1.4,-18.4 1.4,-9.4 h -2.9"
       style="fill:#000000;fill-opacity:1;fill-rule:nonzero;stroke:none"
       id="path136" /><path
       d="m 328.5,518.9 1.4,-9.3 H 327 m 1.5,-52.8 -1.5,9.4 h 2.9 m 24.9,104 1.5,-9.4 h -2.9 m 1.4,-104 -1.4,9.4 h 2.9 m -55.7,4.2 -1.4,9.4 h 2.9 m -1.5,-23 1.5,-9.4 h -2.9"
       style="fill:#000000;fill-opacity:1;fill-rule:nonzero;stroke:none"
       id="path138" /><path
       d="m 148.5,361.7 9.3,1.5 v -2.9 m 108.6,1.4 -9.4,-1.4 v 2.9 m 159.6,59.9 9.4,1.5 v -2.9 m 308.1,1.4 -9.4,-1.4 v 2.9"
       style="fill:#000000;fill-opacity:1;fill-rule:nonzero;stroke:none"
       id="path140" /><path
       d="m 221.4,548.4 -4.7,3.1 m 5.5,-1.9 -4.8,3.1 m 6.2,-9.2 0.3,0.5 0.1,0.6 -0.1,0.7 -0.3,0.6 -0.3,0.7 -0.5,0.7 -0.7,0.6 -0.7,0.5 m 2.2,-4.9 -0.8,-1.3 m -12.4,8 0.9,1.3 m 5.4,0 -0.8,0.4 -0.8,0.3 -0.8,0.2 -0.8,0.1 h -0.7 l -0.6,-0.2 -0.5,-0.4 -0.4,-0.4 m 13.1,-6.9 -0.8,-1.1 m -1.4,6.1 0.7,-0.6 0.6,-0.6 0.5,-0.6 0.4,-0.7 0.2,-0.7 0.1,-0.6 -0.1,-0.6 -0.2,-0.6 m -13.1,6.9 0.7,1.2 m 0,0 0.4,0.4 0.5,0.3 0.7,0.2 0.7,0.1 0.7,-0.1 0.8,-0.2 0.8,-0.3 0.8,-0.4 m 5.4,-10.5 -0.1,-0.2 -0.1,-0.1 -0.1,-0.2 -0.1,-0.2 -0.2,-0.2 -0.1,-0.2 -0.1,-0.2 -0.2,-0.2 m -12.3,8.1 0.1,0.2 0.2,0.2 0.1,0.2 0.1,0.2 0.1,0.1 0.1,0.2 0.1,0.2 0.1,0.1 m 11.4,-9.5 -3.3,-5.1 m -10.7,10.6 1.7,2.6 m -18,-24.2 -1.2,-0.1 -1.1,-0.4 -1.1,-0.7 -0.9,-0.8 -0.7,-1 -0.4,-1.1 -0.2,-1.3 V 518 l 0.4,-1.2 0.6,-1 0.7,-1 1,-0.7 1.1,-0.5 1.2,-0.3 h 1.3 l 1.2,0.3 1.1,0.5 0.9,0.7 0.8,1 0.6,1 0.3,1.2 0.1,1.2 -0.2,1.3 -0.4,1.1 -0.7,1 -0.9,0.8 -1.1,0.7 -1.1,0.4 -1.3,0.1 m 22.7,-0.9 -1.1,-0.1 -1,-0.4 -0.9,-0.6 -0.8,-0.8 -0.6,-1 -0.3,-1 v -1.1 l 0.2,-1.1 0.4,-1 0.7,-0.9 0.8,-0.7 1,-0.5 1.1,-0.3 h 1.1 l 1,0.3 1,0.5 0.9,0.7 0.6,0.9 0.5,1 0.2,1.1 -0.1,1.1 -0.3,1 -0.6,1 -0.7,0.8 -0.9,0.6 -1.1,0.4 -1.1,0.1 m -45.3,0 -1.1,-0.1 -1.1,-0.4 -0.9,-0.6 -0.8,-0.8 -0.5,-1 -0.3,-1 -0.1,-1.1 0.2,-1.1 0.4,-1 0.7,-0.9 0.8,-0.7 1,-0.5 1.1,-0.3 h 1.1 l 1.1,0.3 1,0.5 0.8,0.7 0.7,0.9 0.4,1 0.2,1.1 v 1.1 l -0.4,1 -0.5,1 -0.8,0.8 -0.9,0.6 -1,0.4 -1.1,0.1 m -8,-13.2 0.9,-2.7 1.1,-2.6 1.4,-2.5 1.5,-2.4 1.8,-2.2 2,-2.1 2.1,-1.9 2.3,-1.7 2.5,-1.4 2.6,-1.3 2.6,-1 2.8,-0.7 2.8,-0.5 2.8,-0.3 h 2.9 l 2.8,0.3 2.8,0.5 2.8,0.7 2.6,1 2.6,1.3 2.4,1.4 2.4,1.7 2.1,1.9 2,2.1 1.7,2.2 1.6,2.4 1.4,2.5 1.1,2.6 0.9,2.7 m -61.3,0 v 16.8 m 61.3,0 -0.9,2.8 -1.1,2.6 -1.4,2.5 -1.6,2.4 -1.7,2.2 -2,2.1 -2.1,1.8 -2.4,1.7 -2.4,1.5 -2.6,1.2 -2.6,1 -2.8,0.8 -2.8,0.5 -2.8,0.3 h -2.9 l -2.8,-0.3 -2.8,-0.5 -2.8,-0.8 -2.6,-1 -2.6,-1.2 -2.5,-1.5 -2.3,-1.7 -2.1,-1.8 -2,-2.1 -1.8,-2.2 -1.5,-2.4 -1.4,-2.5 -1.1,-2.6 -0.9,-2.8 m 61.3,0 v -16.8 m -8,11.2 -0.8,-0.2 -0.8,-0.4 -0.6,-0.6 -0.4,-0.7 -0.1,-0.9 0.1,-0.8 0.4,-0.8 0.6,-0.6 0.8,-0.4 0.8,-0.1 0.9,0.1 0.7,0.4 0.6,0.6 0.4,0.8 0.1,0.8 -0.1,0.9 -0.4,0.7 -0.6,0.6 -0.7,0.4 -0.9,0.2 m -45.3,0 -0.9,-0.2 -0.7,-0.4 -0.6,-0.6 -0.4,-0.7 -0.2,-0.9 0.2,-0.8 0.4,-0.8 0.6,-0.6 0.7,-0.4 0.9,-0.1 0.8,0.1 0.8,0.4 0.6,0.6 0.4,0.8 0.1,0.8 -0.1,0.9 -0.4,0.7 -0.6,0.6 -0.8,0.4 -0.8,0.2 m 87.3,48.5 h 0.2 l 0.2,-0.1 0.2,-0.1 0.2,-0.1 0.1,-0.2 0.1,-0.2 0.1,-0.2 v -0.2 m -98.6,-12.5 h 97.5 m -97.5,0 h -0.3 -0.2 -0.2 -0.1 -0.2 -0.1 -0.1 m 0,0 v 12.5 m 1.2,1.1 h 97.5 m 1.1,-1.1 v -12.5 m 0,0 v 0 h -0.1 -0.1 -0.1 -0.2 -0.2 -0.2 -0.2 m -98.7,12.5 v 0.2 l 0.1,0.2 0.1,0.2 0.2,0.2 0.1,0.1 0.2,0.1 0.2,0.1 h 0.3 m 97.5,0 h 0.1 0.5 0.7 1.1 1.2 1.5 1.6 1.7 1.8 M 157.5,556.6 h -0.1 -0.4 -0.7 -0.9 -1.1 -1.3 -1.4 -1.6 -1.5 m 0,13.6 h 1.7 1.7 1.7 1.4 1.3 1 0.7 0.5 0.2 m 107.7,-13.6 h -1.6 -1.5 -1.5 -1.3 -1.1 -0.9 -0.6 -0.5 -0.1 m -117.9,0 v 12.5 m 1.1,-12.5 h -0.2 -0.2 -0.2 -0.2 -0.1 -0.1 -0.1 m 9.1,0 h -8 m -1.1,12.5 v 0.2 l 0.1,0.2 0.1,0.2 0.1,0.2 0.2,0.1 0.2,0.1 0.2,0.1 h 0.2 m 134.9,-1.1 v -12.5 m 0,0 v 0 h -0.1 -0.2 -0.2 -0.2 -0.2 -0.2 m -7.9,13.6 h 7.9 m 0,-13.6 h -7.9 m -125.9,13.6 h 8 m 126.9,-1.1 v 0.2 0.2 l -0.1,0.2 -0.2,0.2 -0.2,0.1 -0.2,0.1 -0.2,0.1 h -0.2 M 158.7,556.6 h 97.5 m -87.3,-39.5 0.7,0.2 0.5,0.4 0.4,0.5 0.2,0.7 -0.2,0.7 -0.4,0.6 -0.5,0.4 -0.7,0.1 -0.7,-0.1 -0.6,-0.4 -0.4,-0.6 -0.1,-0.7 0.1,-0.7 0.4,-0.5 0.6,-0.4 0.7,-0.2 m 45.3,0 0.7,0.2 0.6,0.4 0.4,0.5 0.1,0.7 -0.1,0.7 -0.4,0.6 -0.6,0.4 -0.7,0.1 -0.7,-0.1 -0.6,-0.4 -0.4,-0.6 -0.1,-0.7 0.1,-0.7 0.4,-0.5 0.6,-0.4 0.7,-0.2 m -55.5,-46.7 h 97.5 m 0,86.2 h 0.2 0.2 0.2 0.2 0.1 0.1 0.1 m 0,0 v -86.2 m -99.8,0 v 86.2 m 0,0 v 0 h 0.1 0.1 0.2 0.1 0.2 0.2 0.3 m -1.2,0 h -0.1 -0.4 -0.7 -0.9 -1.1 -1.3 -1.4 -1.6 -1.5 m 117.9,0 h -1.6 -1.5 -1.5 -1.3 -1.1 -0.9 -0.6 -0.5 -0.1 M 139.4,470.4 v 86.2 m 0,0 v 0 h 0.1 0.1 0.1 0.2 0.2 0.2 0.2 m 8,0 h -8 m 133.8,0 h -7.9 m 9,0 v -86.2 m -1.1,86.2 h 0.2 0.2 0.2 0.2 0.2 0.1 m -79.3,-37.7 -0.2,-1 -0.3,-1.1 -0.7,-0.9 -0.8,-0.7 -0.9,-0.5 -1.1,-0.3 H 191 l -1.1,0.3 -0.9,0.5 -0.9,0.7 -0.6,0.9 -0.4,1.1 -0.1,1 0.1,1.1 0.4,1 0.6,0.9 0.9,0.8 0.9,0.5 1.1,0.2 h 1.1 l 1.1,-0.2 0.9,-0.5 0.8,-0.8 0.7,-0.9 0.3,-1 0.2,-1.1 m -56.7,-62.1 v 13.6 m 0,0 v 0 h 0.2 0.2 0.2 0.4 0.4 0.4 0.5 m 0,-13.6 h -0.5 -0.4 -0.4 -0.4 -0.2 -0.2 -0.2 m 133.8,13.6 H 141.7 M 273.2,456.8 H 141.7 m 131.5,13.6 h 0.4 0.4 0.4 0.4 0.3 0.2 0.1 m 0,0 v -13.6 m 0,0 v 0 h -0.1 -0.2 -0.3 -0.4 -0.4 -0.4 -0.4"
       style="fill:none;stroke:#000000;stroke-width:1.134;stroke-linecap:round;stroke-linejoin:round;stroke-miterlimit:10;stroke-dasharray:none;stroke-opacity:1"
       id="path142" /><path
       d="m 223.6,25.9 0.8,1.2 m -19.5,4 v -0.3 m -26.7,0 v 2.1 M 194,30.8 v 0.3 m -5,0 v -0.3 m 8.1,0.3 h -0.8 -2.1 -2.1 -2.2 -2.1 -2.1 -2 -1.8 -1.8 -1.6 -0.3 m 45.4,0.3 0.8,-1.8 m -2.2,-3.5 0.7,0.1 0.6,0.2 0.5,0.3 0.4,0.4 0.2,0.5 0.1,0.6 -0.1,0.7 -0.2,0.7 m -2.2,-3.5 h -4.8 m -5.4,3.5 0.4,-0.7 0.5,-0.7 0.7,-0.6 0.7,-0.5 0.7,-0.4 0.8,-0.3 0.8,-0.2 0.8,-0.1 m -5.4,3.5 -0.8,1.8 m 5.5,-6.5 -0.8,0.1 -0.8,0.2 -0.8,0.3 -0.8,0.5 -0.7,0.5 -0.6,0.6 -0.5,0.6 -0.4,0.7 m -1.8,2.7 0.1,-0.1 h 0.2 l 0.1,-0.1 0.1,-0.1 0.1,-0.1 0.1,-0.1 0.1,-0.2 0.1,-0.1 m -10.1,0.8 h 9.2 m -9.2,1.8 v -1.8 m 10.9,0.3 -0.2,0.3 -0.2,0.3 -0.2,0.3 -0.2,0.2 -0.2,0.2 -0.2,0.1 -0.3,0.1 h -0.2 m 0.9,-2.6 0.9,-1.9 m 10.1,-3.5 h -4.7 m 5.1,8 h 0.3 l 0.2,-0.1 0.3,-0.1 0.2,-0.2 0.2,-0.2 0.2,-0.3 0.2,-0.3 0.2,-0.3 m 0,-5.5 -0.3,-0.4 -0.5,-0.3 -0.7,-0.2 -0.7,-0.1 m -24.3,6.2 v 1.8 m 0,-1.8 h 3.2 m -39.4,1.8 v -5.7 m 3.3,3.6 v 2.1 m 0,-2.1 h 1.5 1.8 2 2.1 2.3 2.5 2.6 2.7 2.7 2.8 2.9 2.9 2.8 2.9 2.7 2.7 2.6 2.5 0.8 m 12.2,2 v 0.1 m -10.1,-5.7 h -0.7 -2.4 -2.4 -2.6 -2.6 -2.8 -2.8 -2.8 -2.9 -2.8 -2.8 -2.8 -2.6 -2.6 -2.5 -2.3 -2.1 -2 -1.8 -1.5 -1.4 -1.1 -0.9 m 114.5,303.9 v 0.2 0.2 l -0.1,0.2 -0.2,0.2 -0.2,0.1 -0.2,0.1 -0.2,0.1 h -0.2 m -133.8,0 h 133.8 m 1.1,-1.1 V 52.2 m -9,251.4 1.2,0.2 1.2,0.4 1,0.6 1,0.8 0.7,1 0.5,1.1 0.2,1.2 v 1.3 l -0.2,1.2 -0.5,1.1 -0.7,1 -1,0.8 -1,0.6 -1.2,0.4 -1.2,0.1 -1.2,-0.1 -1.2,-0.4 -1.1,-0.6 -0.9,-0.8 -0.7,-1 -0.5,-1.1 -0.3,-1.2 v -1.3 l 0.3,-1.2 0.5,-1.1 0.7,-1 0.9,-0.8 1.1,-0.6 1.2,-0.4 1.2,-0.2 m -117.9,0 1.2,0.2 1.2,0.4 1,0.6 0.9,0.8 0.8,1 0.5,1.1 0.2,1.2 v 1.3 l -0.2,1.2 -0.5,1.1 -0.8,1 -0.9,0.8 -1,0.6 -1.2,0.4 -1.2,0.1 -1.3,-0.1 -1.1,-0.4 -1.1,-0.6 -0.9,-0.8 -0.8,-1 -0.5,-1.1 -0.2,-1.2 v -1.3 l 0.2,-1.2 0.5,-1.1 0.8,-1 0.9,-0.8 1.1,-0.6 1.1,-0.4 1.3,-0.2 m 98.6,-267.5 1.2,0.1 1.2,0.4 1.1,0.6 0.9,0.8 0.7,1 0.5,1.1 0.3,1.2 v 1.3 l -0.3,1.2 -0.5,1.1 -0.7,1 -0.9,0.8 -1.1,0.6 -1.2,0.4 -1.2,0.1 -1.2,-0.1 -1.2,-0.4 -1.1,-0.6 -0.9,-0.8 -0.7,-1 -0.5,-1.1 -0.3,-1.2 v -1.3 l 0.3,-1.2 0.5,-1.1 0.7,-1 0.9,-0.8 1.1,-0.6 1.2,-0.4 1.2,-0.1 m -79.4,0 1.3,0.1 1.1,0.4 1.1,0.6 0.9,0.8 0.7,1 0.5,1.1 0.3,1.2 v 1.3 l -0.3,1.2 -0.5,1.1 -0.7,1 -0.9,0.8 -1.1,0.6 -1.1,0.4 -1.3,0.1 -1.2,-0.1 -1.2,-0.4 -1,-0.6 -1,-0.8 -0.7,-1 -0.5,-1.1 -0.2,-1.2 v -1.3 l 0.2,-1.2 0.5,-1.1 0.7,-1 1,-0.8 1,-0.6 1.2,-0.4 1.2,-0.1 m 5.7,281.1 1.2,0.2 1.2,0.4 1.1,0.6 0.9,0.8 0.7,1 0.5,1.1 0.3,1.2 v 1.3 l -0.3,1.2 -0.5,1.1 -0.7,1 -0.9,0.8 -1.1,0.6 -1.2,0.4 -1.2,0.1 -1.2,-0.1 -1.2,-0.4 -1.1,-0.6 -0.9,-0.8 -0.7,-1 -0.5,-1.1 -0.3,-1.2 v -1.3 l 0.3,-1.2 0.5,-1.1 0.7,-1 0.9,-0.8 1.1,-0.6 1.2,-0.4 1.2,-0.2 m 68,0 1.3,0.2 1.1,0.4 1.1,0.6 0.9,0.8 0.7,1 0.5,1.1 0.3,1.2 v 1.3 l -0.3,1.2 -0.5,1.1 -0.7,1 -0.9,0.8 -1.1,0.6 -1.1,0.4 -1.3,0.1 -1.2,-0.1 -1.2,-0.4 -1,-0.6 -0.9,-0.8 -0.8,-1 -0.5,-1.1 -0.2,-1.2 v -1.3 l 0.2,-1.2 0.5,-1.1 0.8,-1 0.9,-0.8 1,-0.6 1.2,-0.4 1.2,-0.2 m -100.9,15 h -0.2 l -0.2,-0.1 -0.2,-0.1 -0.2,-0.1 -0.1,-0.2 -0.1,-0.2 -0.1,-0.2 v -0.2 m 0,-278.9 V 331.1 M 274.3,51 h 0.2 l 0.2,0.1 0.2,0.1 0.2,0.1 0.2,0.2 0.1,0.2 v 0.2 0.3 M 274.3,51 h -7.9 m 0,0 -1.6,-0.1 -1.5,-0.4 -1.5,-0.7 -1.3,-0.9 -1.1,-1.1 -0.9,-1.3 -0.6,-1.5 -0.5,-1.5 -0.1,-1.6 m 0,0 V 34 m 0,0 v -0.2 l -0.1,-0.2 -0.1,-0.2 -0.1,-0.2 -0.2,-0.1 -0.2,-0.1 -0.2,-0.1 h -0.2 m 0,0 h -97.5 m -1.2,9 -0.1,1.6 -0.4,1.5 -0.7,1.5 -0.9,1.3 -1.1,1.1 -1.3,0.9 -1.4,0.7 -1.6,0.4 -1.5,0.1 m 9,-17 v 7.9 m -9,9.1 h -8 m -1.1,1.2 v -0.3 l 0.1,-0.2 0.1,-0.2 0.1,-0.2 0.2,-0.1 0.2,-0.1 0.2,-0.1 h 0.2 m 18.2,-18.1 h -0.3 l -0.2,0.1 -0.2,0.1 -0.1,0.1 -0.2,0.2 -0.1,0.2 -0.1,0.2 V 34 m 108.9,272.2 0.9,0.2 0.9,0.4 0.7,0.6 0.5,0.8 0.2,0.9 v 0.9 l -0.2,0.9 -0.5,0.8 -0.7,0.6 -0.9,0.4 -0.9,0.1 -0.9,-0.1 -0.9,-0.4 -0.7,-0.6 -0.5,-0.8 -0.3,-0.9 v -0.9 l 0.3,-0.9 0.5,-0.8 0.7,-0.6 0.9,-0.4 0.9,-0.2 m -25,13.7 1,0.1 0.8,0.4 0.7,0.6 0.5,0.8 0.3,0.9 v 0.9 l -0.3,0.9 -0.5,0.8 -0.7,0.6 -0.8,0.4 -1,0.1 -0.9,-0.1 -0.8,-0.4 -0.8,-0.6 -0.5,-0.8 -0.2,-0.9 v -0.9 l 0.2,-0.9 0.5,-0.8 0.8,-0.6 0.8,-0.4 0.9,-0.1 m -68,0 0.9,0.1 0.9,0.4 0.7,0.6 0.5,0.8 0.3,0.9 v 0.9 l -0.3,0.9 -0.5,0.8 -0.7,0.6 -0.9,0.4 -0.9,0.1 -0.9,-0.1 -0.9,-0.4 -0.7,-0.6 -0.5,-0.8 -0.3,-0.9 v -0.9 l 0.3,-0.9 0.5,-0.8 0.7,-0.6 0.9,-0.4 0.9,-0.1 m -24.9,-13.7 0.9,0.2 0.8,0.4 0.7,0.6 0.5,0.8 0.3,0.9 v 0.9 l -0.3,0.9 -0.5,0.8 -0.7,0.6 -0.8,0.4 -0.9,0.1 -1,-0.1 -0.8,-0.4 -0.7,-0.6 -0.5,-0.8 -0.3,-0.9 v -0.9 l 0.3,-0.9 0.5,-0.8 0.7,-0.6 0.8,-0.4 1,-0.2 m 98.6,-267.5 0.9,0.1 0.9,0.4 0.7,0.6 0.5,0.8 0.3,0.9 v 0.9 l -0.3,0.9 -0.5,0.8 -0.7,0.6 -0.9,0.4 -0.9,0.1 -0.9,-0.1 -0.9,-0.4 -0.7,-0.6 -0.5,-0.8 -0.3,-0.9 v -0.9 l 0.3,-0.9 0.5,-0.8 0.7,-0.6 0.9,-0.4 0.9,-0.1 m -79.4,0 1,0.1 0.8,0.4 0.7,0.6 0.5,0.8 0.3,0.9 v 0.9 l -0.3,0.9 -0.5,0.8 -0.7,0.6 -0.8,0.4 -1,0.1 -0.9,-0.1 -0.8,-0.4 -0.8,-0.6 -0.5,-0.8 -0.2,-0.9 v -0.9 l 0.2,-0.9 0.5,-0.8 0.8,-0.6 0.8,-0.4 0.9,-0.1 m 94,293.5 h 0.2 l 0.2,0.1 0.1,0.1 m -109.6,0 0.1,-0.1 0.2,-0.1 h 0.2 m 109.1,0.2 0.2,0.3 0.1,0.2 0.1,0.1 m 0,0 0.4,-0.2 0.5,-0.1 0.5,-0.2 0.4,-0.1 0.5,-0.1 h 0.5 l 0.5,-0.1 h 0.5 m -117.9,0 h 0.4 l 0.5,0.1 h 0.5 l 0.5,0.1 0.5,0.1 0.4,0.2 0.5,0.1 0.4,0.2 m 0.4,-0.6 -0.1,0.3 -0.1,0.2 -0.1,0.1 h -0.1 m 21.2,-7.5 -0.8,-0.2 -0.7,-0.4 -0.5,-0.6 -0.3,-0.8 v -0.8 l 0.3,-0.7 0.5,-0.6 0.7,-0.4 0.8,-0.2 0.8,0.2 0.7,0.4 0.5,0.6 0.3,0.7 v 0.8 l -0.3,0.8 -0.5,0.6 -0.7,0.4 -0.8,0.2 m 68,0 -0.8,-0.2 -0.7,-0.4 -0.5,-0.6 -0.3,-0.8 v -0.8 l 0.3,-0.7 0.5,-0.6 0.7,-0.4 0.8,-0.2 0.8,0.2 0.7,0.4 0.5,0.6 0.3,0.7 v 0.8 l -0.3,0.8 -0.5,0.6 -0.7,0.4 -0.8,0.2 m 15.9,15.8 0.1,-1.5 0.4,-1.4 0.6,-1.4 0.8,-1.2 1,-1.1 1.1,-0.9 1.3,-0.8 m -110.4,0 1.3,0.8 1.2,0.9 1,1.1 0.8,1.2 0.5,1.4 0.4,1.4 0.1,1.5 m 99.8,7.9 v -7.9 m -99.8,0 v 7.9 m 1.2,1.2 h 97.5 m 1.1,-1.2 v 0.2 l -0.1,0.3 -0.1,0.2 -0.1,0.1 -0.2,0.2 -0.2,0.1 h -0.2 l -0.2,0.1 m -97.5,0 -0.3,-0.1 h -0.2 l -0.2,-0.1 -0.1,-0.2 -0.2,-0.1 -0.1,-0.2 -0.1,-0.3 v -0.2 m 105.2,-16.2 -0.4,0.2 m -108.2,1 -0.1,-0.1 -0.6,-0.4 -1,-0.6 -1.2,-0.4 m 16.5,-293.1 0.8,0.2 0.7,0.4 0.5,0.6 0.3,0.7 v 0.9 l -0.3,0.7 -0.5,0.6 -0.7,0.4 -0.8,0.2 -0.8,-0.2 -0.7,-0.4 -0.5,-0.6 -0.3,-0.7 v -0.9 l 0.3,-0.7 0.5,-0.6 0.7,-0.4 0.8,-0.2 m 79.4,0 0.8,0.2 0.7,0.4 0.5,0.6 0.3,0.7 v 0.9 l -0.3,0.7 -0.5,0.6 -0.7,0.4 -0.8,0.2 -0.8,-0.2 -0.7,-0.4 -0.5,-0.6 -0.3,-0.7 v -0.9 l 0.3,-0.7 0.5,-0.6 0.7,-0.4 0.8,-0.2 m 19.3,267.6 0.8,0.2 0.7,0.4 0.5,0.6 0.3,0.7 v 0.8 l -0.3,0.8 -0.5,0.6 -0.7,0.4 -0.8,0.2 -0.8,-0.2 -0.7,-0.4 -0.5,-0.6 -0.3,-0.8 v -0.8 l 0.3,-0.7 0.5,-0.6 0.7,-0.4 0.8,-0.2 m -117.9,0 0.8,0.2 0.7,0.4 0.5,0.6 0.2,0.7 v 0.8 l -0.2,0.8 -0.5,0.6 -0.7,0.4 -0.8,0.2 -0.8,-0.2 -0.7,-0.4 -0.6,-0.6 -0.2,-0.8 v -0.8 l 0.2,-0.7 0.6,-0.6 0.7,-0.4 0.8,-0.2 m 117.9,38.6 1.1,-0.1 1,-0.4 0.9,-0.6 0.7,-0.8 0.5,-1 0.3,-1.1 v -1.1 l -0.3,-1 -0.5,-1 -0.7,-0.8 -0.9,-0.6 -1,-0.4 -1.1,-0.2 -1.1,0.2 -1,0.4 -0.9,0.6 -0.8,0.8 -0.5,1 -0.2,1 v 1.1 l 0.2,1.1 0.5,1 0.8,0.8 0.9,0.6 1,0.4 1.1,0.1 m -124.7,4.6 -0.5,-0.1 -0.4,-0.1 -0.4,-0.2 -0.4,-0.3 -0.2,-0.4 -0.2,-0.3 -0.2,-0.5 v -0.4 m 133.8,2.3 h -17 m -97.5,0 h -17 m 133.7,-2.3 v 0.4 l -0.1,0.5 -0.2,0.3 -0.3,0.4 -0.4,0.3 -0.4,0.2 -0.4,0.1 -0.4,0.1 m 2.2,-315.3 v 17.1 m 0,278.9 v 17 M 273.2,32.9 h 0.4 l 0.4,0.1 0.4,0.3 0.4,0.2 0.3,0.4 0.2,0.4 0.1,0.4 v 0.4 m -2.2,-2.2 h -17 m -97.5,0 h -17 m -2.3,2.2 v -0.4 l 0.2,-0.4 0.2,-0.4 0.2,-0.4 0.4,-0.2 0.4,-0.3 0.4,-0.1 h 0.5 m -2.3,315.2 v -17 m 0,-278.9 V 35.1 m 9.1,11.4 -1.1,-0.1 -1.1,-0.4 -0.9,-0.7 -0.7,-0.8 -0.5,-0.9 -0.2,-1.1 v -1.1 l 0.2,-1.1 0.5,-0.9 0.7,-0.8 0.9,-0.7 1.1,-0.4 1.1,-0.1 1,0.1 1.1,0.4 0.9,0.7 0.7,0.8 0.5,0.9 0.3,1.1 v 1.1 l -0.3,1.1 -0.5,0.9 -0.7,0.8 -0.9,0.7 -1.1,0.4 -1,0.1 m 0,299.3 -1.1,-0.1 -1.1,-0.4 -0.9,-0.6 -0.7,-0.8 -0.5,-1 -0.2,-1.1 v -1.1 l 0.2,-1 0.5,-1 0.7,-0.8 0.9,-0.6 1.1,-0.4 1.1,-0.2 1,0.2 1.1,0.4 0.9,0.6 0.7,0.8 0.5,1 0.3,1 v 1.1 l -0.3,1.1 -0.5,1 -0.7,0.8 -0.9,0.6 -1.1,0.4 -1,0.1 m 117.9,-299.3 1.1,-0.1 1,-0.4 0.9,-0.7 0.7,-0.8 0.5,-0.9 0.3,-1.1 v -1.1 l -0.3,-1.1 -0.5,-0.9 -0.7,-0.8 -0.9,-0.7 -1,-0.4 -1.1,-0.1 -1.1,0.1 -1,0.4 -0.9,0.7 -0.8,0.8 -0.5,0.9 -0.2,1.1 v 1.1 l 0.2,1.1 0.5,0.9 0.8,0.8 0.9,0.7 1,0.4 1.1,0.1"
       style="fill:none;stroke:#000000;stroke-width:1.134;stroke-linecap:round;stroke-linejoin:round;stroke-miterlimit:10;stroke-dasharray:none;stroke-opacity:1"
       id="path144" /><path
       d="m 741.8,552.2 -1.2,1.2 m -0.8,-2.7 h -3.7 m -2,-63.5 h 5.7 m -3.9,61.6 v 0.2 l 0.1,0.2 v 0.2 l 0.1,0.2 m -0.6,1.8 -0.3,-0.3 -0.3,-0.3 -0.2,-0.3 -0.2,-0.3 -0.2,-0.3 -0.1,-0.4 -0.1,-0.4 v -0.3 m 3.3,3.9 -1.9,-1.3 m 1.9,-0.7 1.2,0.8 M 735.9,535 v 13.8 m 0.2,-7.2 v -0.1 l -0.1,-0.2 v -0.2 l -0.1,-0.2 v -0.2 m 3.9,3.8 0.1,0.1 0.6,0.7 0.5,0.6 0.4,0.7 0.4,0.7 0.2,0.6 v 0.5 m 0,3.1 v 0.4 l -0.2,0.3 -0.4,0.2 -0.4,0.1 h -0.5 l -0.6,-0.2 -0.7,-0.4 -0.6,-0.4 m 3.4,-3.1 v 3.1 m -4.6,1.2 0.7,0.4 0.6,0.3 0.6,0.2 0.5,0.1 0.5,-0.1 0.3,-0.2 m -6.5,-26.1 h 5.7 m -3.7,7.7 h -2 m 2,0 v 2.4 2.3 2 1.9 1.7 1.5 1.3 1 0.8 0.5 0.3 m 3.7,0 v 0 -0.3 -0.5 -0.8 -1 -1.2 -1.5 -1.7 -1.8 -2.1 -2.2 -2.4 -2.5 -2.6 -2.8 m 0,-16.8 h -5.7 m 5.7,0 v 16.8 m 0,-16.8 v -2.7 -2.6 -2.5 -2.4 -2.2 -2.1 -1.9 -1.7 -1.4 -1.3 -1 -0.7 -0.5 -0.3 m -305.1,81.9 0.1,0.2 v 0.2 l 0.1,0.2 0.2,0.2 0.2,0.1 0.1,0.1 0.3,0.1 h 0.2 m 0,0 H 714.8 M 434.7,556.6 v 12.5 m 1.2,-12.5 h -0.2 -0.3 -0.1 -0.2 -0.2 -0.1 -0.1 m 280.1,0 H 435.9 m 280,12.5 v 0.2 0.2 l -0.1,0.2 -0.2,0.2 -0.2,0.1 -0.2,0.1 -0.2,0.1 h -0.2 m 1.1,-1.1 v -12.5 m 0,0 v 0 h -0.1 -0.2 -0.2 -0.2 -0.2 -0.2 m 0,13.6 h 0.2 0.4 0.8 1 1.3 1.4 1.6 1.7 1.8 m 0,-13.6 h -1.6 -1.5 -1.4 -1.3 -1.1 -0.9 -0.7 -0.4 -0.2 m 9.1,13.6 h 8 m 0,-13.6 h -8 m 8,13.6 h 0.2 l 0.2,-0.1 0.2,-0.1 0.2,-0.1 0.1,-0.2 0.1,-0.2 0.1,-0.2 v -0.2 m 0,0 v -12.5 m 0,0 v 0 h -0.1 -0.1 -0.1 -0.2 -0.2 -0.2 -0.2 M 434.7,470.4 v 85 m 0,0 0.1,0.3 v 0.2 l 0.1,0.2 0.2,0.1 0.2,0.2 0.1,0.1 0.3,0.1 h 0.2 m 14.7,-86.2 v 86.2 m -14.7,-86.2 h 14.7 m -14.7,86.2 h 14.7 m -15.9,-14.8 -0.1,-0.2 -0.4,-0.7 -0.6,-1.2 -0.6,-1.8 -0.2,-1.6 0.1,-1.5 0.4,-1.4 0.6,-1.3 0.6,-1.1 0.2,-0.5 m 0,-34 -0.1,-0.3 -0.4,-0.7 -0.6,-1.2 -0.6,-1.8 -0.2,-1.5 0.1,-1.6 0.4,-1.3 0.6,-1.4 0.6,-1.1 0.2,-0.4 v -0.1 m -0.1,71.4 v 0 l 0.1,0.1 m -0.1,-0.1 -0.3,-0.2 -0.2,-0.2 -0.2,-0.4 v -0.2 -0.1 m -8.6,-2.4 1.6,0.7 1.7,0.6 1.5,0.5 1.4,0.6 1.2,0.4 1.1,0.4 0.8,0.3 m -17.3,-6.4 8,2.9 m -8,-2.9 -0.1,-0.1 -0.2,-0.1 -0.1,-0.1 -0.1,-0.2 -0.1,-0.1 v -0.2 l -0.1,-0.1 V 549 m 0,-78.6 V 549 m 1.1,-78.6 h -0.2 -0.2 -0.2 -0.2 -0.1 -0.1 -0.1 m 34,0 h 264.2 m -264.2,86.2 h 264.2 m -264.2,0 v -86.2 m 265.3,86.2 v -86.2 m -1.1,86.2 h 0.2 0.2 0.2 0.2 0.2 0.1 m 9.1,0 h -1.6 -1.5 -1.4 -1.3 -1.1 -0.9 -0.7 -0.4 -0.2 m 17.1,0 h -8 m 9.1,0 v -86.2 m -1.1,86.2 h 0.2 0.2 0.2 0.2 0.1 0.1 0.1 M 418.9,456.8 h -0.5 -0.4 -0.4 -0.3 -0.3 -0.2 -0.1 -0.1 m 0,0 v 13.6 m 0,0 h 0.1 0.1 0.2 0.3 0.3 0.4 0.4 0.5 m 0,-13.6 h 312.9 m -312.9,13.6 h 312.9 m 2.3,0 v -13.6 m 0,0 h -0.1 -0.1 -0.2 -0.3 -0.3 -0.4 -0.4 -0.5 m 0,13.6 h 0.5 0.4 0.4 0.3 0.3 0.2 0.1 0.1"
       style="fill:none;stroke:#000000;stroke-width:1.134;stroke-linecap:round;stroke-linejoin:round;stroke-miterlimit:10;stroke-dasharray:none;stroke-opacity:1"
       id="path146" /><path
       d="m 442.5,134.9 -1.4,-1.1 m 11.2,-10.4 -8.7,11.6 m -30.4,8.8 -2.5,-1.4 m 31.7,-55 4,2.3 m -38.9,83.3 -0.1,-0.1 -0.1,-0.1 -0.1,-0.1 -0.1,-0.2 -0.1,-0.1 v -0.1 -0.2 -0.1 m 0,0 v -10.2 m 6.1,14.4 -5.6,-3.2 m 8,6.4 v -0.3 l -0.2,-0.7 -0.5,-0.8 -0.8,-0.8 -0.9,-0.6 m -5.6,11.6 -0.1,-0.1 -0.1,-0.1 -0.1,-0.1 -0.1,-0.1 -0.1,-0.2 v -0.1 -0.2 -0.1 m 0,0 V 176.6 M 604.8,301.6 407.5,187.8 M 701.1,246 v 0.2 l -0.1,0.1 v 0.2 l -0.1,0.1 -0.1,0.1 -0.1,0.1 -0.1,0.1 -0.1,0.1 m 0.6,-11.1 V 246 m -0.6,1 -94.6,54.6 m 0,0 -0.1,0.1 h -0.2 l -0.1,0.1 h -0.2 -0.1 l -0.2,-0.1 h -0.1 l -0.1,-0.1 m 96.3,-66 H 701 m 0.1,-70.1 v 70.1 m 0,0 v 0.3 M 407,161.8 v -22.9 m 0,-25.4 V 91.4 m 0,85.2 V 172 M 394.6,98.8 V 87.7 m 318.8,74.1 v 11.1 m -288.3,-54.2 0.1,-1.2 0.4,-1.4 0.7,-1.4 0.9,-1.2 1,-1.1 1.1,-0.8 1,-0.4 m -3.9,8.4 0.1,-1.3 0.4,-1.4 0.7,-1.4 0.9,-1.3 1,-1.1 1,-0.7 m 21.6,11.1 -8.7,11.6 m 8.7,-11.6 -0.7,-0.1 m -4,3.5 0.6,-0.7 0.5,-0.6 0.6,-0.7 0.6,-0.5 0.5,-0.4 0.5,-0.3 0.4,-0.2 0.3,-0.1 m -4,3.5 -3.4,4.5 m -1.3,3.6 -0.2,-0.1 -0.1,-0.2 v -0.3 l 0.1,-0.5 0.3,-0.5 0.3,-0.7 0.4,-0.6 0.5,-0.7 m -1.3,3.6 0.7,0.1 m 2.7,-9.3 1.3,1.1 m -3.4,4.5 -1.3,-1.1 m 3.4,-4.5 -3.4,4.5 m 8.7,-6.9 -1.3,-1.1 m 0,0 -0.3,0.1 -0.4,0.1 -0.5,0.4 -0.6,0.4 -0.5,0.5 -0.6,0.6 -0.6,0.7 -0.5,0.7 m -3.4,4.5 -0.5,0.7 -0.4,0.6 -0.4,0.7 -0.2,0.5 -0.2,0.5 v 0.3 l 0.1,0.2 m 2.3,1.3 0.1,-0.1 h 0.1 m 8.4,-12.4 0.1,0.2 0.1,0.2 0.1,0.1 0.1,0.1 v 0.1 l -0.1,0.1 -0.2,0.1 m -1.3,-1.2 v 0 h 0.1 v -0.1 -0.1 h -0.1 V 122 l -0.1,-0.1 m 1.3,0.7 -3.6,-4.2 m 2.3,3.5 -2.5,-3 m 1.9,3.4 h 0.7 m -10.2,9.6 0.6,0.7 m -14.7,-13.1 -1,0.4 -1,0.1 -0.8,-0.2 -0.6,-0.6 -0.4,-0.9 -0.2,-1.1 0.2,-1.3 0.4,-1.4 0.6,-1.3 0.8,-1.2 1,-1 1,-0.8 1.1,-0.4 0.9,-0.1 0.9,0.2 0.6,0.6 0.4,0.9 0.1,1.1 -0.1,1.3 -0.4,1.4 -0.6,1.3 -0.9,1.2 -0.9,1 -1.1,0.8 m 16.1,-10 -1,0.4 h -0.9 l -0.7,-0.3 -0.5,-0.6 -0.3,-0.9 V 107 l 0.3,-1.2 0.5,-1.3 0.7,-1.1 0.9,-1 1,-0.7 0.9,-0.4 h 0.9 l 0.7,0.3 0.5,0.6 0.3,0.9 v 1.1 l -0.3,1.2 -0.5,1.3 -0.7,1.1 -0.9,1 -0.9,0.7 m -32.1,18.5 -1,0.4 h -0.8 l -0.8,-0.3 -0.5,-0.6 -0.2,-0.9 v -1.1 l 0.2,-1.2 0.5,-1.3 0.8,-1.1 0.8,-1 1,-0.7 0.9,-0.4 h 0.9 l 0.7,0.3 0.6,0.6 0.2,0.9 v 1.1 l -0.2,1.3 -0.6,1.2 -0.7,1.1 -0.9,1 -0.9,0.7 m -5.6,-7.5 0.8,-3.1 1,-3.2 1.2,-3.1 1.5,-3.1 1.7,-3 1.8,-2.9 2,-2.7 2.2,-2.6 2.2,-2.4 2.4,-2.1 2.4,-1.8 2.4,-1.6 2.5,-1.2 2.4,-0.9 2.3,-0.6 2.3,-0.3 2.1,0.1 2,0.4 1.9,0.7 1.7,1.1 1.4,1.4 1.3,1.7 1,2 0.8,2.2 m -43.3,25 v 13.7 m 43.3,-25 -0.8,3.1 -1,3.2 -1.3,3.1 -1.4,3.1 -1.7,3 -1.9,2.9 -2,2.8 -2.1,2.5 -2.3,2.4 -2.3,2.1 -2.4,1.8 -2.5,1.6 -2.4,1.2 -2.4,1 -2.4,0.6 -2.2,0.2 h -2.2 l -2,-0.5 -1.8,-0.7 -1.7,-1.1 -1.5,-1.4 -1.2,-1.7 -1,-2 -0.8,-2.2 m 43.3,-25 V 95.5 m -35,48.3 1.2,0.6 2,0.6 2.1,0.3 2.2,-0.1 2.3,-0.4 2.4,-0.8 2.5,-1.1 2.4,-1.4 2.5,-1.7 2.4,-2 2.3,-2.3 2.2,-2.5 2.1,-2.6 2,-2.9 1.7,-3 1.6,-3.1 1.4,-3.1 m 1.4,0.8 -1.4,-0.8 m 3.7,-6.8 -0.2,1 -0.3,0.9 -0.2,1 -0.3,0.9 -0.3,1 -0.3,0.9 -0.3,1 -0.4,0.9 m -1.7,-9.9 4,2.3 m 0,-13.7 -4,-2.3 m 4,16 V 97.8 m -8.8,11.1 h -0.1 l -0.7,-0.1 -0.4,-0.5 -0.1,-0.8 0.1,-0.9 0.4,-1 0.7,-0.8 0.7,-0.6 0.7,-0.2 0.7,0.1 0.4,0.5 v 0.1 m 0.6,-15 1.3,0.8 1.4,1.4 1.3,1.7 1,2 0.8,2.2 m -23.1,13.9 -1,0.8 -1,1 -0.8,1.2 -0.7,1.3 -0.4,1.4 -0.1,1.3 0.1,1.1 0.1,0.2 m 5,-8.8 -0.2,0.1 -1,0.4 m -17.8,15.7 h -0.1 l -0.6,-0.1 -0.4,-0.5 -0.2,-0.7 0.2,-1 0.4,-0.9 0.6,-0.9 0.7,-0.6 0.8,-0.2 0.6,0.1 0.4,0.5 0.1,0.1 m 261.1,115.8 1.2,-0.5 1.5,-0.4 1.5,-0.1 1.5,0.1 1.4,0.4 1.3,0.5 0.9,0.7 0.6,0.8 0.2,0.9 -0.2,0.9 -0.6,0.8 -0.9,0.7 -1.3,0.6 -1.4,0.3 -1.5,0.1 -1.5,-0.1 -1.5,-0.3 -1.2,-0.6 -0.9,-0.7 -0.6,-0.8 -0.2,-0.9 0.2,-0.9 0.6,-0.8 0.9,-0.7 m -83.4,48.1 1.3,-0.5 1.4,-0.3 1.5,-0.2 1.5,0.2 1.4,0.3 1.3,0.5 0.9,0.7 0.6,0.9 0.2,0.8 -0.2,0.9 -0.6,0.8 -0.9,0.8 -1.3,0.5 -1.4,0.3 -1.5,0.1 -1.5,-0.1 -1.4,-0.3 -1.3,-0.5 -0.9,-0.8 -0.6,-0.8 -0.2,-0.9 0.2,-0.8 0.6,-0.9 0.9,-0.7 m -119.4,-149.5 1.2,-0.5 1.4,-0.3 1.5,-0.2 1.6,0.2 1.4,0.3 1.2,0.5 0.9,0.7 0.6,0.9 0.2,0.8 -0.2,0.9 -0.6,0.8 -0.9,0.8 -1.2,0.5 -1.4,0.3 -1.6,0.1 -1.5,-0.1 -1.4,-0.3 -1.2,-0.5 -1,-0.8 -0.6,-0.8 -0.2,-0.9 0.2,-0.8 0.6,-0.9 1,-0.7 m -56.2,32.4 1.3,-0.5 1.4,-0.3 1.5,-0.2 1.5,0.2 1.5,0.3 1.2,0.5 0.9,0.7 0.6,0.9 0.2,0.8 -0.2,0.9 -0.6,0.8 -0.9,0.8 -1.2,0.5 -1.5,0.3 -1.5,0.1 -1.5,-0.1 -1.4,-0.3 -1.3,-0.5 -0.9,-0.8 -0.6,-0.8 -0.2,-0.9 0.2,-0.8 0.6,-0.9 0.9,-0.7 m -2.2,14.5 1.3,-0.9 0.9,-1 0.6,-1.1 0.2,-1.2 -0.2,-1.1 -0.6,-1.1 -0.9,-1.1 -1.3,-0.9 m -5.6,11.6 5.6,-3.2 M 605.3,301.6 408.1,187.7 M 699.9,247 605.3,301.6 M 502.7,133.1 699.9,247 m -202.8,-110.7 5.6,-3.2 m -20,3.2 1.5,0.8 1.8,0.5 1.9,0.4 2,0.1 2,-0.1 1.9,-0.4 1.7,-0.5 1.6,-0.8 m -20.1,-3.2 5.7,3.2 m -74.6,36.6 68.9,-39.8 m -63.3,43 -5.6,-3.2 m 210.7,109.6 1.2,-0.5 1.4,-0.4 1.6,-0.1 1.5,0.1 1.4,0.4 1.2,0.5 1,0.7 0.6,0.8 0.2,0.9 -0.2,0.9 -0.6,0.8 -1,0.7 -1.2,0.6 -1.4,0.3 -1.5,0.1 -1.6,-0.1 -1.4,-0.3 -1.2,-0.6 -0.9,-0.7 -0.6,-0.8 -0.2,-0.9 0.2,-0.9 0.6,-0.8 0.9,-0.7 m 48.1,-27.8 1.2,-0.5 1.4,-0.3 1.6,-0.2 1.5,0.2 1.4,0.3 1.2,0.5 1,0.7 0.6,0.9 0.2,0.8 -0.2,0.9 -0.6,0.8 -1,0.8 -1.2,0.5 -1.4,0.3 -1.5,0.1 -1.6,-0.1 -1.4,-0.3 -1.2,-0.5 -0.9,-0.8 -0.6,-0.8 -0.2,-0.9 0.2,-0.8 0.6,-0.9 0.9,-0.7 m -165,-123 v 0.2 l 0.1,0.2 v 0.2 l 0.1,0.2 0.1,0.2 0.2,0.2 0.1,0.1 0.2,0.1 m 0.8,-1.4 v 0.2 l -0.1,0.2 v 0.2 l -0.1,0.2 -0.2,0.2 -0.1,0.2 -0.1,0.1 -0.2,0.1 m -0.8,-1.4 0.2,-0.1 h 0.2 l 0.2,-0.1 h 0.2 0.2 l 0.2,0.1 h 0.2 l 0.2,0.1 m -7.2,3.3 -1.4,0.6 -1.6,0.5 -1.7,0.3 -1.7,0.1 -1.8,-0.1 -1.7,-0.3 -1.6,-0.5 -1.3,-0.6 m 0,0 -0.1,0.1 v 0.2 l -0.1,0.2 -0.1,0.2 -0.1,0.2 -0.1,0.2 -0.2,0.1 -0.1,0.1 m 13.6,-1.3 v 0.1 0.2 l 0.1,0.2 0.1,0.2 0.1,0.2 0.2,0.2 0.1,0.1 0.2,0.1 m -20.1,-3.2 0.2,-0.1 0.1,-0.1 0.2,-0.2 0.1,-0.2 0.1,-0.2 0.1,-0.2 v -0.2 -0.2 m 0,0 -0.1,-0.1 h -0.2 l -0.2,-0.1 h -0.3 -0.2 l -0.2,0.1 h -0.2 l -0.2,0.1 m 0.8,1.4 -0.1,-0.1 -0.2,-0.1 -0.1,-0.2 -0.1,-0.2 -0.1,-0.2 -0.1,-0.2 v -0.2 l -0.1,-0.2 m 25.7,-10.2 v 10.2 m 1.6,0 v -10.2 m 0,0 -0.2,-0.1 h -0.2 l -0.2,-0.1 h -0.2 -0.2 l -0.2,0.1 h -0.2 l -0.2,0.1 m -18.4,3.3 V 135 m 12.8,0 v -10.2 m 0,0 -1.4,0.6 -1.6,0.5 -1.7,0.3 -1.7,0.1 -1.8,-0.1 -1.7,-0.3 -1.6,-0.5 -1.3,-0.6 m -7.3,-3.3 v 10.2 m 1.6,0 v -10.2 m 0,0 -0.1,-0.1 h -0.2 l -0.2,-0.1 h -0.3 -0.2 l -0.2,0.1 h -0.2 l -0.2,0.1 M 700.7,245.6 503.5,131.7 m 197.2,113.9 v 0.2 0.2 l -0.1,0.2 -0.1,0.2 -0.1,0.1 -0.2,0.2 -0.1,0.2 -0.2,0.1 m -198,-115.3 -5.6,3.3 m -20.1,-3.3 -68.9,39.8 m 0.8,1.4 -0.2,-0.1 -0.1,-0.1 -0.2,-0.2 -0.1,-0.2 -0.1,-0.2 -0.1,-0.2 v -0.2 -0.2 m 76.2,-36.5 -5.7,-3.3 m -70.5,39.8 v -10.2 m 0,0 68.9,-39.8 m 224.5,113.9 v 10.2 M 503.5,121.5 700.7,235.4 m -198.8,-113.9 -5.6,3.3 m -12.8,0 -5.7,-3.3 m 0.2,15.3 -0.2,0.1 -1.6,0.1 -1.5,-0.1 -0.3,-0.1 m -52.5,32.4 -0.3,0.1 -1.5,0.1 -1.5,-0.1 -0.3,-0.1 m -11,-7.9 -0.2,0.1 -0.1,0.1 v 0.2 0.1 m 5.9,21.3 v 0.2 l 0.1,0.2 v 0.2 l 0.1,0.2 0.2,0.2 0.1,0.1 0.1,0.2 0.2,0.1 m -0.8,-1.4 -5.6,3.2 m 0,0 v 0.2 0.2 l 0.1,0.2 0.1,0.2 0.1,0.2 0.2,0.2 0.1,0.1 0.2,0.1 m -0.8,-1.4 v -10.2 m 2.9,-1.6 -2.9,1.6 m 0,0 -0.2,0.1 -0.1,0.2 v 0.1 0.1 m 273.9,61.6 h -0.3 l -1.5,0.1 -1.5,-0.1 h -0.3 m 23.8,-2.3 -0.1,-0.2 v -0.1 l -0.1,-0.1 -0.2,-0.1 m -27.8,18.5 -0.3,0.1 -1.5,0.1 -1.6,-0.1 -0.2,-0.1 m -44.5,27.8 h -0.3 l -1.5,0.1 -1.6,-0.1 h -0.2 m -23.7,4.6 -0.3,0.1 -1.5,0.1 -1.5,-0.1 -0.3,-0.1 m 106.8,-50.9 -10.4,-6 m 0,0 V 159 m 10.4,6 v 70.4 m 0,-70.4 -10.4,-6 m 10.4,76.4 0.2,0.1 h 0.1 v 0.1 h 0.1 m 0,-70.1 -0.1,-0.1 v -0.2 l -0.1,-0.1 -0.2,-0.1 M 503.5,121.5 690.3,229.4 m -188.4,-107.9 0.2,-0.1 h 0.2 l 0.2,-0.1 h 0.2 0.2 l 0.2,0.1 h 0.2 l 0.2,0.1 m -1.6,0 -5.6,3.3 m 0,0 -1.4,0.6 -1.6,0.5 -1.7,0.3 -1.7,0.1 -1.8,-0.1 -1.7,-0.3 -1.6,-0.5 -1.3,-0.6 m 0,0 -5.7,-3.3 m -1.6,0 0.2,-0.1 h 0.2 l 0.2,-0.1 h 0.2 0.3 l 0.2,0.1 h 0.2 l 0.1,0.1 m -70.5,39.8 68.9,-39.8 M 407,161.8 v -0.1 -0.2 l 0.1,-0.1 0.2,-0.1 m 2.9,13.2 -2.9,1.6 m -0.3,0.5 v -0.1 -0.1 l 0.1,-0.2 0.2,-0.1 m 89,-121.7 v 70.4 m 0,-70.4 -1.4,0.7 -1.6,0.4 -1.7,0.3 -1.7,0.1 -1.8,-0.1 -1.7,-0.3 -1.6,-0.4 -1.3,-0.7 m 0,0 v 70.4 m 18.4,-73.6 v 70.3 m 1.6,0 V 51.2 m 0,0 -0.2,-0.1 -0.2,-0.1 h -0.2 -0.2 -0.2 -0.2 l -0.2,0.1 -0.2,0.1 m -25.7,0 v 70.3 m 1.6,0 V 51.2 m 0,0 -0.1,-0.1 -0.2,-0.1 h -0.2 -0.3 -0.2 -0.2 l -0.2,0.1 -0.2,0.1 M 690.3,229.4 V 159 M 503.5,51.2 690.3,159 M 501.9,51.2 l -5.6,3.2 m -89,36.6 68.9,-39.8 m 7.3,3.2 -5.7,-3.2 m -70.5,39.8 -0.2,0.1 -0.1,0.1 v 0.1 0.1 m 297.7,83.3 0.8,-0.6 0.5,-0.7 v -0.8 l -0.3,-0.8 -0.7,-0.6 -1.1,-0.5 -1.2,-0.3 -1.3,-0.1 h -0.3 m 0,5.2 h 1.3 l 1.3,-0.3 1,-0.5 m 8.1,-0.9 -11.7,6.8 m 11.7,-8.6 0.2,0.2 0.2,0.2 0.2,0.2 v 0.3 0.2 l -0.2,0.3 -0.2,0.2 -0.2,0.2 M 491.5,44.2 712.8,172 M 488.3,44.2 l 0.3,-0.1 0.4,-0.2 h 0.4 l 0.5,-0.1 0.4,0.1 h 0.4 l 0.4,0.2 0.4,0.1 m -3.2,0 -93,53.7 m 0,1.9 -0.3,-0.2 -0.2,-0.3 -0.2,-0.2 v -0.3 -0.2 l 0.2,-0.3 0.2,-0.2 0.3,-0.2 m 11.7,8.6 -11.7,-6.7 m 11.7,1.6 h -1 l -1.3,-0.2 -1.2,-0.4 -0.9,-0.6 -0.5,-0.7 -0.1,-0.8 0.2,-0.7 0.6,-0.7 1,-0.6 1.2,-0.3 1.3,-0.2 h 0.7 m 86.1,-43.6 0.8,-0.7 0.4,-0.7 0.1,-0.8 -0.4,-0.7 -0.7,-0.7 -1,-0.5 -1.3,-0.3 -1.3,-0.1 -1.3,0.1 -1.2,0.4 -1,0.5 -0.6,0.7 -0.3,0.8 0.2,0.8 0.5,0.7 0.9,0.6 1.2,0.4 1.3,0.2 h 1.3 l 1.3,-0.3 1.1,-0.4 m -4.8,-19.5 v 11.1 m 3.2,0 V 33.1 m 0,0 -0.4,-0.2 -0.4,-0.1 h -0.4 l -0.4,-0.1 -0.5,0.1 H 489 l -0.4,0.1 -0.3,0.2 M 712.8,160.9 V 172 M 491.5,33.1 712.8,160.9 M 488.3,33.1 l -93,53.7 m 0,11.1 V 86.8 m 0,0 -0.3,0.2 -0.2,0.2 -0.2,0.3 v 0.2 m 318.8,74.1 v -0.3 l -0.2,-0.2 -0.2,-0.2 -0.2,-0.2 m -262.1,-39 -0.4,0.4 m -43,49.2 -0.2,0.1 -0.1,0.1 v 0.2 0.1 m 0.5,1 h 0.1 0.2 0.1 l 0.2,-0.1 m 5,3.3 h 0.2 l 0.1,0.1 0.1,-0.1 0.2,-0.1 m 1.9,3.3 v 0 l -0.2,1 -0.5,1 -0.9,0.9 -1.1,0.8 m 0,-7 v 7 m -5.4,4.7 h 0.1 0.2 0.1 l 0.2,-0.1 m -1.1,-0.9 v -0.1 -0.2 l 0.1,-0.1 0.2,-0.1 m 197.5,115.3 0.1,0.1 h 0.1 l 0.2,-0.1 h 0.1 m 95.2,-54.6 -0.1,0.1 h -0.2 l -0.1,-0.1 h -0.2 m 0.8,-1.4 0.2,0.1 0.1,0.1 v 0.1 l 0.1,0.1 m -95.2,55.6 -0.1,0.1 h -0.2 l -0.1,-0.1 h -0.2 m -198,-140.3 v -22 m 0,-26.7 V 91 m 0,85.1 v -3.3"
       style="fill:none;stroke:#000000;stroke-width:1.134;stroke-linecap:round;stroke-linejoin:round;stroke-miterlimit:10;stroke-dasharray:none;stroke-opacity:1"
       id="path148" /></g></svg>
